<svg width="117" height="58" viewBox="0 0 117 58" fill="none" xmlns="http://www.w3.org/2000/svg">
<path d="M105.794 34.3285V22.1767H107.792V31.034L115.299 22.1767H117V34.3285H115.002V25.5252L107.468 34.3285H105.794ZM107.36 15.9658H109.115C109.115 16.5599 109.331 17.064 109.763 17.478C110.195 17.8741 110.735 18.0721 111.383 18.0721C112.013 18.0721 112.545 17.8741 112.977 17.478C113.409 17.064 113.625 16.5599 113.625 15.9658H115.38C115.38 17.046 114.993 17.9461 114.219 18.6662C113.481 19.3863 112.536 19.7464 111.383 19.7464C110.249 19.7464 109.295 19.3863 108.521 18.6662C107.747 17.9461 107.36 17.046 107.36 15.9658Z" fill="#ECC2D6"/>
<path d="M94.5689 34.3285H88.547V22.1768H90.5453V26.5514H94.5689C95.685 26.5514 96.6122 26.9205 97.3503 27.6586C98.1064 28.3787 98.4844 29.3058 98.4844 30.44C98.4844 31.3581 98.2234 32.1592 97.7013 32.8433C97.1973 33.5094 96.5222 33.9595 95.676 34.1935C95.532 34.2295 95.262 34.2745 94.8659 34.3285H94.5689ZM102.427 34.3285H100.429V22.1768H102.427V34.3285ZM94.5689 28.4687H90.5453V32.4113H94.5689C95.091 32.4113 95.523 32.2222 95.8651 31.8442C96.2251 31.4661 96.4051 30.998 96.4051 30.44C96.4051 29.8819 96.2251 29.4138 95.8651 29.0358C95.523 28.6577 95.091 28.4687 94.5689 28.4687Z" fill="#ECC2D6"/>
<path d="M75.4149 22.1768H81.6798C82.544 22.1768 83.3091 22.4108 83.9752 22.8789C84.6413 23.3469 85.0733 23.941 85.2714 24.6611C85.2714 24.7871 85.2984 24.9582 85.3524 25.1742C85.3524 26.3444 84.9293 27.2445 84.0832 27.8746C85.3074 28.5227 85.9195 29.4948 85.9195 30.791C85.9195 31.8172 85.5594 32.6633 84.8393 33.3294C84.1372 33.9955 83.2461 34.3285 82.1659 34.3285H75.4149V22.1768ZM77.4132 28.8737V32.4113H82.1659C82.652 32.4113 83.057 32.2492 83.3811 31.9252C83.7051 31.5831 83.8672 31.1601 83.8672 30.656C83.8672 30.1519 83.7051 29.7289 83.3811 29.3868C83.057 29.0448 82.652 28.8737 82.1659 28.8737H77.4132ZM81.6798 24.094H77.4132V27.1995H81.6798C82.1479 27.1995 82.535 27.0555 82.841 26.7674C83.1471 26.4614 83.3001 26.0833 83.3001 25.6333C83.3001 25.1832 83.1471 24.8141 82.841 24.5261C82.535 24.2381 82.1479 24.094 81.6798 24.094Z" fill="#ECC2D6"/>
<path d="M66.3182 34.5991C64.5 34.5991 62.9877 33.996 61.7816 32.7898C60.5754 31.5836 59.9723 30.0714 59.9723 28.2532C59.9723 26.4349 60.5754 24.9227 61.7816 23.7165C62.9877 22.5103 64.5 21.9072 66.3182 21.9072C68.1185 21.9072 69.6217 22.5103 70.8279 23.7165C72.0521 24.9407 72.6641 26.4529 72.6641 28.2532C72.6641 30.0534 72.0521 31.5656 70.8279 32.7898C69.6217 33.996 68.1185 34.5991 66.3182 34.5991ZM66.3182 23.9055C65.094 23.9055 64.0769 24.3196 63.2668 25.1477C62.4567 25.9758 62.0516 27.011 62.0516 28.2532C62.0516 29.4953 62.4567 30.5305 63.2668 31.3586C64.0769 32.1867 65.094 32.6008 66.3182 32.6008C67.5424 32.6008 68.5595 32.1867 69.3697 31.3586C70.1798 30.5305 70.5848 29.4953 70.5848 28.2532C70.5848 27.011 70.1798 25.9758 69.3697 25.1477C68.5595 24.3196 67.5424 23.9055 66.3182 23.9055Z" fill="#ECC2D6"/>
<path d="M47.2592 31.2236L49.2574 30.7105C49.7615 32.0247 50.8507 32.6818 52.5249 32.6818C53.4791 32.6818 54.2622 32.4838 54.8743 32.0877C55.5044 31.6737 55.8194 31.1696 55.8194 30.5755C55.8194 30.0894 55.6394 29.6934 55.2793 29.3873C54.9193 29.0633 54.4692 28.9012 53.9291 28.9012H50.9587V27.227H53.7941C54.2982 27.227 54.7212 27.083 55.0633 26.7949C55.4053 26.5069 55.5764 26.1558 55.5764 25.7418C55.5764 25.1837 55.2883 24.7246 54.7122 24.3646C54.1542 24.0045 53.4431 23.8245 52.5789 23.8245C50.9047 23.8245 49.8245 24.4816 49.3385 25.7958L47.3402 25.2827C47.7182 24.2206 48.3753 23.3924 49.3115 22.7984C50.2656 22.2043 51.3908 21.9072 52.6869 21.9072C54.0912 21.9072 55.2703 22.2493 56.2245 22.9334C57.1606 23.5995 57.6287 24.4456 57.6287 25.4717C57.6287 26.5339 57.1246 27.38 56.1165 28.0101C57.2866 28.6582 57.8717 29.5944 57.8717 30.8185C57.8717 31.8807 57.3676 32.7808 56.3595 33.5189C55.3693 34.239 54.1092 34.5991 52.5789 34.5991C51.2647 34.5991 50.1396 34.302 49.2034 33.708C48.2673 33.1139 47.6192 32.2857 47.2592 31.2236Z" fill="#ECC2D6"/>
<path d="M39.2084 34.5991C37.3901 34.5991 35.8779 33.996 34.6717 32.7898C33.4655 31.5836 32.8624 30.0714 32.8624 28.2532C32.8624 26.4349 33.4655 24.9227 34.6717 23.7165C35.8779 22.5103 37.3901 21.9072 39.2084 21.9072C41.0086 21.9072 42.5118 22.5103 43.718 23.7165C44.9422 24.9407 45.5543 26.4529 45.5543 28.2532C45.5543 30.0534 44.9422 31.5656 43.718 32.7898C42.5118 33.996 41.0086 34.5991 39.2084 34.5991ZM39.2084 23.9055C37.9842 23.9055 36.967 24.3196 36.1569 25.1477C35.3468 25.9758 34.9417 27.011 34.9417 28.2532C34.9417 29.4953 35.3468 30.5305 36.1569 31.3586C36.967 32.1867 37.9842 32.6008 39.2084 32.6008C40.4325 32.6008 41.4497 32.1867 42.2598 31.3586C43.0699 30.5305 43.475 29.4953 43.475 28.2532C43.475 27.011 43.0699 25.9758 42.2598 25.1477C41.4497 24.3196 40.4325 23.9055 39.2084 23.9055Z" fill="#ECC2D6"/>
<path d="M99.7288 56.269H97.2714L91.7896 49.977L96.7583 44.1172H99.2157L94.247 49.977L99.7288 56.269ZM91.6006 44.1172V56.269H89.6023V44.1172H91.6006Z" fill="#805741"/>
<path d="M75.0188 56.2689V44.1172H77.0171V52.9745L84.5242 44.1172H86.2254V56.2689H84.2271V47.4656L76.693 56.2689H75.0188ZM76.585 37.9062H78.3403C78.3403 38.5003 78.5563 39.0044 78.9884 39.4185C79.4204 39.8145 79.9605 40.0126 80.6086 40.0126C81.2387 40.0126 81.7698 39.8145 82.2018 39.4185C82.6339 39.0044 82.8499 38.5003 82.8499 37.9062H84.6052C84.6052 38.9864 84.2181 39.8865 83.444 40.6066C82.7059 41.3267 81.7608 41.6868 80.6086 41.6868C79.4745 41.6868 78.5203 41.3267 77.7462 40.6066C76.9721 39.8865 76.585 38.9864 76.585 37.9062Z" fill="#805741"/>
<path d="M72.3688 50.8677H61.9453C62.0713 51.9479 62.5484 52.857 63.3765 53.5951C64.2046 54.3152 65.2038 54.6753 66.3739 54.6753C67.9221 54.6753 69.1193 54.0902 69.9654 52.92L71.8827 53.5411C71.3246 54.4772 70.5595 55.2153 69.5874 55.7554C68.6152 56.2775 67.5441 56.5385 66.3739 56.5385C64.5016 56.5385 62.9534 55.9354 61.7292 54.7293C60.5051 53.5051 59.893 51.9929 59.893 50.1926C59.893 48.3923 60.4961 46.8891 61.7022 45.6829C62.9264 44.4588 64.4206 43.8467 66.1849 43.8467C67.9492 43.8467 69.4254 44.4588 70.6135 45.6829C71.8197 46.8891 72.4228 48.3923 72.4228 50.1926C72.4228 50.4626 72.4048 50.6877 72.3688 50.8677ZM61.9723 49.2745H70.3705C70.1725 48.2303 69.6774 47.3752 68.8853 46.7091C68.1112 46.043 67.193 45.71 66.1309 45.71C65.1047 45.71 64.2046 46.043 63.4305 46.7091C62.6564 47.3752 62.1703 48.2303 61.9723 49.2745Z" fill="#805741"/>
<path d="M59.0376 56.269H56.5803L51.0985 49.977L56.0672 44.1172H58.5245L53.5558 49.977L59.0376 56.269ZM50.9094 44.1172V56.269H48.9111V44.1172H50.9094Z" fill="#805741"/>
<path d="M35.5504 53.163L37.5487 52.65C38.0528 53.9642 39.1419 54.6213 40.8162 54.6213C41.7703 54.6213 42.5534 54.4232 43.1655 54.0272C43.7956 53.6131 44.1107 53.109 44.1107 52.5149C44.1107 52.0289 43.9306 51.6328 43.5706 51.3268C43.2105 51.0027 42.7605 50.8407 42.2204 50.8407H39.2499V49.1665H42.0854C42.5894 49.1665 43.0125 49.0224 43.3545 48.7344C43.6966 48.4464 43.8676 48.0953 43.8676 47.6812C43.8676 47.1232 43.5796 46.6641 43.0035 46.304C42.4454 45.944 41.7343 45.764 40.8702 45.764C39.1959 45.764 38.1158 46.4211 37.6297 47.7352L35.6314 47.2222C36.0095 46.16 36.6666 45.3319 37.6027 44.7378C38.5568 44.1437 39.682 43.8467 40.9782 43.8467C42.3824 43.8467 43.5616 44.1887 44.5157 44.8728C45.4518 45.5389 45.9199 46.3851 45.9199 47.4112C45.9199 48.4734 45.4158 49.3195 44.4077 49.9496C45.5779 50.5977 46.163 51.5338 46.163 52.758C46.163 53.8201 45.6589 54.7203 44.6507 55.4584C43.6606 56.1785 42.4004 56.5385 40.8702 56.5385C39.556 56.5385 38.4308 56.2415 37.4947 55.6474C36.5585 55.0533 35.9105 54.2252 35.5504 53.163Z" fill="#805741"/>
<path d="M30.9046 47.4657L23.3705 56.269H21.6963V44.1172H23.6946V52.9745L31.2017 44.1172H32.9029V56.269H30.9046V47.4657Z" fill="#805741"/>
<path d="M22.6112 33.5693C22.5099 32.9955 22.4593 32.4047 22.4593 31.7972C22.4255 31.1896 22.4424 30.582 22.5099 29.9744C22.5774 28.6917 22.7124 27.409 22.915 26.1263C23.0837 24.8436 23.2694 23.561 23.4719 22.2783C24.0457 18.7677 24.7208 15.3247 25.4972 11.9493C26.3073 8.54 27.185 5.13075 28.1301 1.7215L28.282 1.11391C28.417 0.742609 28.5351 0.472568 28.6364 0.303793C28.7377 0.101264 28.9065 0 29.1427 0C29.4465 0 29.7672 0.0843869 30.1048 0.253161C30.341 0.354427 30.4761 0.47257 30.5098 0.60759C30.5436 0.708853 30.5267 0.911384 30.4592 1.21518C29.379 5.23202 28.3495 9.26573 27.3706 13.3163C26.4255 17.3332 25.6997 21.4175 25.1934 25.5694C25.1934 25.6369 25.2103 25.6875 25.244 25.7213C25.3116 25.755 25.3791 25.8225 25.4466 25.9238C25.8516 24.7086 26.2398 23.5441 26.6111 22.4302C26.9824 21.2825 27.3537 20.1517 27.725 19.0378C27.9951 18.1939 28.3664 17.1644 28.8389 15.9492C29.3115 14.734 29.8516 13.4682 30.4592 12.1518C31.1005 10.8353 31.7925 9.53577 32.5351 8.25308C33.3115 6.93664 34.1385 5.7721 35.0161 4.75945C35.8937 3.71304 36.822 2.86917 37.8009 2.22783C38.7798 1.58648 39.7755 1.26581 40.7882 1.26581C41.6658 1.26581 42.3578 1.51897 42.8641 2.0253C43.4042 2.53162 43.6911 3.2236 43.7249 4.10123C43.7924 5.51893 43.5561 6.98727 43.016 8.50624C42.611 9.72142 42.0878 11.1054 41.4464 12.6581C40.8388 14.1771 40.0793 15.6117 39.168 16.9619C38.2903 18.2783 37.2608 19.4091 36.0794 20.3542C34.898 21.2656 33.5646 21.7213 32.0794 21.7213C31.8769 21.7213 31.6068 21.6875 31.2693 21.62C30.9655 21.5188 30.7799 21.3838 30.7123 21.215C30.7799 20.9787 30.9317 20.8606 31.168 20.8606C32.4845 20.8606 33.6828 20.3542 34.7629 19.3416C35.8768 18.3289 36.8557 17.1138 37.6996 15.696C38.5772 14.2446 39.303 12.7594 39.8768 11.2404C40.4844 9.68767 40.9401 8.3881 41.2439 7.3417C41.4464 6.63285 41.5814 5.92399 41.6489 5.21514C41.7502 4.47253 41.7671 3.76368 41.6996 3.08858C41.6658 2.64976 41.497 2.43036 41.1932 2.43036C40.9907 2.43036 40.7376 2.51474 40.4338 2.68352C40.13 2.81854 39.8093 3.00419 39.4717 3.24047C39.1342 3.443 38.8304 3.66241 38.5604 3.8987C38.2903 4.13498 38.0709 4.32063 37.9021 4.45565C36.687 5.60332 35.5899 6.97039 34.611 8.55688C33.6321 10.1434 32.7545 11.8311 31.9782 13.6201C31.2018 15.3754 30.5098 17.1644 29.9022 18.9872C29.2946 20.7762 28.7546 22.4302 28.282 23.9491C27.8094 25.4006 27.3368 26.8521 26.8643 28.3035C26.4255 29.7212 25.9698 31.1558 25.4972 32.6073C25.3284 33.1474 25.1259 33.5693 24.8896 33.8731C24.6533 34.1431 24.2314 34.295 23.6238 34.3288C23.32 34.3288 23.1006 34.2781 22.9656 34.1769C22.7968 34.0756 22.6787 33.8731 22.6112 33.5693Z" fill="#ECC2D6"/>
<path d="M1.14285 39.1888C0.670276 38.2099 0.349605 37.1973 0.18083 36.1509C0.0120554 35.0707 -0.0385771 33.9568 0.0289328 32.8091C0.0626877 32.4716 0.11332 31.8809 0.18083 31.037C0.282095 30.1931 0.417115 29.248 0.585889 28.2016C0.754664 27.1214 0.940316 26.0075 1.14285 24.8599C1.34538 23.7122 1.56478 22.6658 1.80107 21.7206C2.07111 20.7418 2.34115 19.9485 2.61119 19.3409C2.91498 18.6996 3.2019 18.3789 3.47194 18.3789C3.64071 18.3789 3.77573 18.4127 3.877 18.4802C4.01201 18.5139 4.14703 18.5646 4.28205 18.6321C4.51834 18.7333 4.67024 18.8346 4.73775 18.9359C4.80526 19.0371 4.80526 19.2228 4.73775 19.4928C4.67024 19.8304 4.60273 20.0835 4.53522 20.2523C4.26518 21.0962 3.99514 22.0244 3.7251 23.0371C3.48881 24.0497 3.26941 25.0961 3.06688 26.1763C2.86435 27.2227 2.67869 28.2691 2.50992 29.3155C2.3749 30.3282 2.25676 31.2902 2.15549 32.2016C2.02047 33.3155 2.0036 34.4125 2.10486 35.4927C2.23988 36.5391 2.5268 37.5517 2.96561 38.5306C3.26941 39.2732 3.53945 39.6445 3.77573 39.6445C3.97826 39.6445 4.2483 39.5264 4.58585 39.2901C4.95715 39.0201 5.31158 38.7163 5.64913 38.3787C6.02043 38.0074 6.3411 37.653 6.61114 37.3154C6.91494 36.9441 7.13435 36.6741 7.26937 36.5053C7.77569 35.7965 8.26514 35.0876 8.7377 34.3787C9.24403 33.6361 9.73348 32.8935 10.206 32.1509L15.5224 23.7966C15.8938 23.2227 16.2819 22.6658 16.687 22.1257C17.1258 21.5856 17.5477 21.0287 17.9528 20.4548C18.2904 19.9823 18.6785 19.5603 19.1173 19.189C19.5899 18.8177 20.1131 18.6321 20.687 18.6321C20.9907 18.6321 21.2777 18.6827 21.5477 18.784C21.8177 18.8852 22.0371 19.054 22.2059 19.2903C22.3747 19.4928 22.4253 19.7629 22.3578 20.1004C22.3241 20.843 22.2228 21.6363 22.054 22.4801C21.6827 24.6067 21.2439 26.7333 20.7376 28.8598C20.265 30.9526 19.7924 33.0623 19.3199 35.1889C18.6448 38.3618 18.0034 41.5348 17.3958 44.7078C16.822 47.847 16.2988 51.0031 15.8262 54.176C15.7587 54.5473 15.725 54.9017 15.725 55.2393C15.725 55.6106 15.6912 55.9819 15.6237 56.3532C15.5562 56.7583 15.3706 57.0789 15.0668 57.3152C14.7967 57.5853 14.476 57.7203 14.1047 57.7203C13.936 57.7203 13.7672 57.6865 13.5984 57.619C13.4634 57.5515 13.3959 57.4334 13.3959 57.2646C13.3959 57.0621 13.3959 56.8595 13.3959 56.657C13.4296 56.4545 13.4634 56.2688 13.4971 56.1001C13.8009 54.0748 14.071 52.0495 14.3073 50.0242C14.5773 47.9989 14.9486 45.9736 15.4212 43.9483C15.6237 43.1382 15.7756 42.328 15.8769 41.5179C16.0119 40.674 16.1638 39.847 16.3326 39.0369C16.7039 37.1129 17.1089 35.2226 17.5477 33.3661C17.9866 31.4758 18.4254 29.5687 18.8642 27.6446C19.0667 26.6995 19.2524 25.7712 19.4211 24.8599C19.6237 23.9147 19.8262 22.9696 20.0287 22.0244C20.0287 21.9569 20.0287 21.8894 20.0287 21.8219C20.0625 21.7206 20.0794 21.6363 20.0794 21.5687C20.0794 21.4 20.0119 21.3156 19.8768 21.3156C19.8093 21.3156 19.7081 21.3831 19.573 21.5181C19.4718 21.6531 19.3536 21.805 19.2186 21.9738C19.0836 22.1426 18.9486 22.3114 18.8136 22.4801C18.7123 22.6152 18.6448 22.7164 18.611 22.7839C17.9359 23.7966 17.2608 24.8261 16.5857 25.8725C15.9106 26.8852 15.2355 27.8978 14.5604 28.9104C13.8853 29.9906 13.1934 31.0708 12.4845 32.1509C11.8094 33.1973 11.1174 34.2606 10.4086 35.3408C10.071 35.8808 9.64909 36.4716 9.14276 37.1129C8.67019 37.7205 8.14699 38.2943 7.57316 38.8344C6.99933 39.3745 6.39174 39.8302 5.75039 40.2015C5.10905 40.5728 4.45083 40.7584 3.77573 40.7584C3.2019 40.7584 2.67869 40.6403 2.20613 40.404C1.76731 40.134 1.41288 39.7289 1.14285 39.1888Z" fill="#805741"/>
</svg>
